<?xml version="1.0" standalone="no"?>
<!DOCTYPE svg PUBLIC "-//W3C//DTD SVG 20010904//EN"
 "http://www.w3.org/TR/2001/REC-SVG-20010904/DTD/svg10.dtd">
<svg version="1.0" xmlns="http://www.w3.org/2000/svg"
 width="300.000000pt" height="300.000000pt" viewBox="0 0 300.000000 300.000000"
 preserveAspectRatio="xMidYMid meet">
<metadata>
Created by potrace 1.11, written by Peter Selinger 2001-2013
</metadata>
<g transform="translate(0.000000,300.000000) scale(0.100000,-0.100000)"
fill="#000000" stroke="none">
<path d="M213 2982 c-92 -33 -158 -97 -194 -192 -19 -49 -19 -89 -19 -1288 0
-1425 -8 -1304 95 -1408 46 -45 73 -64 110 -75 42 -12 243 -14 1305 -14 l1255
0 56 27 c70 35 126 94 155 167 l23 56 0 1245 c0 1215 -1 1246 -20 1296 -26 67
-83 132 -150 169 l-54 30 -1255 2 c-1185 2 -1258 2 -1307 -15z m348 -122 c0
-8 1 -437 1 -952 l0 -938 138 0 c123 0 138 -2 142 -17 3 -15 2 -806 -1 -823
-1 -3 -130 -5 -288 -4 -314 1 -319 2 -375 61 -56 59 -54 8 -53 1318 1 945 4
1218 14 1247 14 43 79 105 118 114 16 3 31 6 36 7 4 1 66 2 137 2 109 0 130
-2 131 -15z m1187 -938 l2 -952 140 0 140 0 0 -423 0 -422 -530 0 -530 0 0
423 0 422 140 0 140 0 0 948 c0 522 2 951 4 953 3 2 114 4 248 4 l243 0 3
-953z m1019 934 c42 -21 72 -53 91 -96 14 -31 16 -173 16 -1249 1 -936 -2
-1223 -11 -1256 -7 -23 -25 -55 -40 -70 -56 -56 -73 -59 -381 -59 -181 -1
-282 3 -283 9 -3 34 -4 812 -1 823 3 9 40 12 142 12 l137 0 0 943 c0 519 2
948 6 953 3 6 64 10 149 9 112 -2 150 -6 175 -19z"/>
</g>
</svg>
